<svg id="_x35_0" enable-background="new 0 0 512 512" height="512" viewBox="0 0 512 512" width="512" xmlns="http://www.w3.org/2000/svg"><g><circle cx="256" cy="256" fill="#5368b7" r="256"/><circle cx="256" cy="256" fill="#6c7ed5" r="209.49"/><g><g><path d="m346.712 409.72c0-21.327 17.278-38.623 38.614-38.623h26.543c21.336 0 38.614 17.295 38.614 38.623z" fill="#c0405c"/><path d="m346.712 409.72c0-21.327 17.278-38.623 38.614-38.623h1.827c21.336 0 38.623 17.295 38.623 38.623z" fill="#e9465e"/></g><g><path d="m381.453 354.882v18.622c0 9.471 7.681 17.141 17.153 17.141 3.177 0 6.152-.865 8.7-2.371 5.05-2.975 8.44-8.475 8.44-14.77v-18.622z" fill="#f5b890"/><path d="m415.746 354.882v18.622c0 6.294-3.39 11.794-8.44 14.77v-19.902c-5.962 2.489-12.518 3.864-19.393 3.864-2.193 0-4.35-.142-6.461-.403v-16.951z" fill="#d48d77"/></g><g><g><g><path d="m446.86 298.953h-8.503v-26.608h8.503c7.347 0 13.304 5.956 13.304 13.304 0 7.348-5.956 13.304-13.304 13.304z" fill="#d48d77"/><path d="m447.289 291.358h-8.932v-11.418h8.932c3.153 0 5.709 2.556 5.709 5.709 0 3.153-2.556 5.709-5.709 5.709z" fill="#c17e62"/></g><g><path d="m333.741 272.345h3.724v26.608h-3.724c-7.348 0-13.304-5.956-13.304-13.304 0-7.347 5.957-13.304 13.304-13.304z" fill="#d48d77"/><path d="m333.312 279.94h4.153v11.418h-4.153c-3.153 0-5.709-2.556-5.709-5.709 0-3.153 2.556-5.709 5.709-5.709z" fill="#c17e62"/></g></g><path d="m347.263 272.345v8.579c-10.87 0-19.682-8.812-19.682-19.682v-40.001h19.682z" fill="#b26e2b"/><g><path d="m337.464 242.734v70.079c0 13.928 5.642 26.54 14.77 35.668 6.591 6.579 14.983 11.344 24.371 13.501 3.639.83 7.42 1.268 11.309 1.268 27.856 0 50.449-22.581 50.449-50.438v-70.079c0-15.268-12.387-27.643-27.655-27.643h-45.602c-2.679 0-5.263.379-7.716 1.102-11.51 3.332-19.926 13.953-19.926 26.542z" fill="#d48d77"/><path d="m337.464 242.734v70.079c0 13.928 5.642 26.54 14.77 35.668 6.591 6.579 14.983 11.344 24.371 13.501 22.427-5.133 39.141-25.201 39.141-49.169v-26.813c0-34.885-25.178-63.88-58.356-69.807-11.51 3.331-19.926 13.952-19.926 26.541z" fill="#f5b890"/><g fill="#eea47d"><path d="m373.647 289.173h10.284c4.224 0 7.648 3.424 7.648 7.648 0 4.224-3.424 7.648-7.648 7.648h-10.284c-4.224 0-7.648-3.424-7.648-7.648 0-4.224 3.424-7.648 7.648-7.648z"/><path d="m375.009 215.09h12.902v79.274h-12.902z" transform="matrix(-1 0 0 -1 762.92 509.454)"/></g><g fill="#334353"><path d="m401.602 259.256c3.86 0 6.989 3.129 6.989 6.989v12.2c0 3.86-3.129 6.989-6.989 6.989-3.86 0-6.989-3.129-6.989-6.989v-12.2c0-3.859 3.129-6.989 6.989-6.989z"/><path d="m361.318 259.256c3.86 0 6.989 3.129 6.989 6.989v12.2c0 3.86-3.129 6.989-6.989 6.989-3.86 0-6.989-3.129-6.989-6.989v-12.2c0-3.859 3.129-6.989 6.989-6.989z"/></g><g><path d="m386.085 332.657c12.108 0 21.959-9.851 21.959-21.958 0-2.291-1.857-4.149-4.149-4.149-2.291 0-4.149 1.857-4.149 4.149 0 7.532-6.128 13.661-13.661 13.661-2.291 0-4.149 1.857-4.149 4.149 0 2.29 1.857 4.148 4.149 4.148z" fill="#c17e62"/></g></g><g><path d="m438.357 298.953h8.503c1.487 0 2.911-.254 4.246-.704v3.547c0 7.055-5.719 12.774-12.774 12.774z" fill="#b26e2b"/><path d="m438.357 272.314h8.503c1.415 0 2.753.28 4.032.69l.214.011v-34.81c0-16.152-13.094-29.247-29.247-29.247h-33.947v7.305c0 9.533 7.728 17.262 17.262 17.262 5.838 0 10.571 4.733 10.571 10.571v6.205c0 12.157 9.855 22.012 22.012 22.012l.599.031v-.03z" fill="#b26e2b"/><path d="m334.716 233.525h72.537c6.784 0 12.283-5.499 12.283-12.283 0-6.784-5.499-12.283-12.283-12.283h-72.537c-6.784 0-12.283 5.499-12.283 12.283 0 6.784 5.499 12.283 12.283 12.283z" fill="#dd8c29"/></g></g></g><g><g><path d="m462.93 406.75c-46.56 63.8-121.91 105.25-206.93 105.25s-160.37-41.45-206.93-105.25z" fill="#c17e62"/><g fill="#d48d77"><path d="m380.58 406.75v72.95c-6.668 3.708-13.507 7.145-20.48 10.25v-83.2z"/><path d="m462.92 406.75c-4.978 6.838-10.303 13.422-15.94 19.73v-19.73z"/><path d="m200.532 406.75v42.24c0 5.66-4.59 10.25-10.25 10.25-5.65 0-10.24-4.59-10.24-10.25v-42.24z"/><path d="m305.71 437.94v69.23c-6.74 1.33-13.57 2.39-20.49 3.17v-72.4c0-5.65 4.59-10.24 10.24-10.24 5.656.004 10.249 4.576 10.25 10.24z"/><path d="m427.21 434.63v11.68c-6.53 5.9-13.37 11.45-20.49 16.63v-28.31c.528-13.576 19.964-13.571 20.49 0z"/><path d="m248.63 406.75v105.14c-6.849-.186-13.674-.653-20.48-1.39v-103.75z"/><path d="m163.68 460.62v34.23c-6.98-2.7-13.81-5.7-20.48-8.98v-25.25c.518-13.58 19.966-13.573 20.48 0z"/><path d="m95.83 407.27v48.44c-7.145-5.736-13.984-11.856-20.48-18.32v-30.12c0-.17 0-.35.01-.52h20.46c.01.18.01.35.01.52z"/></g></g></g><g><g><path d="m280.812 246.94v108.226c0 2.95-.877 5.708-2.395 8.018-1.903 2.951-4.832 5.153-8.296 6.115-1.262.364-2.608.556-3.977.556h-165.887c-1.39 0-2.715-.192-3.977-.556-3.464-.962-6.393-3.164-8.296-6.115-1.518-2.309-2.395-5.067-2.395-8.018v-108.226c0-1.368.192-2.715.556-3.977 1.368-4.896 5.217-8.766 10.134-10.134 1.261-.364 2.608-.556 3.977-.556h165.889c1.39 0 2.715.192 3.977.556 4.896 1.368 8.766 5.217 10.134 10.134.364 1.262.556 2.609.556 3.977z" fill="#3f5d77"/><path d="m278.418 363.184c-2.608 4.02-7.12 6.671-12.272 6.671h-165.889c-5.153 0-9.664-2.651-12.272-6.671 5.794-16.548 21.551-28.393 40.045-28.393h110.322c18.515 0 34.272 11.845 40.066 28.393z" fill="#334353"/><path d="m106.97 246.94v108.226c0 2.95-.877 5.708-2.395 8.018-1.903 2.951-4.832 5.153-8.296 6.115-3.464-.962-6.393-3.164-8.296-6.115-1.518-2.309-2.395-5.067-2.395-8.018v-108.226c0-6.713 4.511-12.379 10.69-14.111 6.181 1.732 10.692 7.398 10.692 14.111z" fill="#3e4e60"/><g fill="#3f6c8e"><path d="m280.812 246.94v108.226c0 2.95-.877 5.708-2.395 8.018-1.903 2.951-4.832 5.153-8.296 6.115-3.464-.962-6.393-3.164-8.296-6.115-1.518-2.309-2.395-5.067-2.395-8.018v-108.226c0-6.735 4.533-12.4 10.69-14.111 6.16 1.711 10.692 7.376 10.692 14.111z"/><path d="m141.553 252.232h83.297c5.358 0 9.701-4.343 9.701-9.701 0-5.358-4.343-9.701-9.701-9.701h-83.297c-5.358 0-9.701 4.343-9.701 9.701-.001 5.357 4.343 9.701 9.701 9.701z"/></g></g><path d="m196.995 351.302h-27.588c-4.885 0-8.844 3.96-8.844 8.844v36.432h45.277v-36.432c-.001-4.884-3.96-8.844-8.845-8.844z" fill="#3e4e60"/><g><path d="m235.072 396.579h-103.742c-5.297 0-9.592 4.294-9.592 9.592 0 5.297 4.294 9.592 9.592 9.592h103.742c5.297 0 9.592-4.294 9.592-9.592 0-5.298-4.294-9.592-9.592-9.592z" fill="#3f5d77"/><path d="m215.184 396.579h-63.966c-3.266 0-5.914 2.648-5.914 5.914 0 3.266 2.648 5.914 5.914 5.914h63.966c3.266 0 5.914-2.648 5.914-5.914 0-3.266-2.648-5.914-5.914-5.914z" fill="#3f6c8e"/></g></g><g><g id="Speech-bubble_4_"><path d="m299.17 235.423c-3.671 0-7.269-1.793-9.429-5.094l-36.304-55.483c-3.404-5.202-1.946-12.178 3.256-15.582 5.201-3.404 12.176-1.946 15.581 3.256l36.304 55.483c3.403 5.202 1.946 12.178-3.256 15.582-1.9 1.243-4.039 1.838-6.152 1.838z" fill="#ebd9ea"/><path d="m332.534 97.217v45.067c0 11.718-3.969 22.495-10.635 31.089-9.277 11.945-23.777 19.627-40.071 19.627h-128.466c-16.294 0-30.794-7.682-40.062-19.627-6.675-8.594-10.645-19.371-10.645-31.089v-45.067c0-11.718 3.969-22.495 10.645-31.079 9.268-11.945 23.768-19.627 40.062-19.627h128.466c16.294 0 30.794 7.682 40.071 19.627 6.666 8.583 10.635 19.361 10.635 31.079z" fill="#ebd9ea"/><path d="m332.534 97.217v45.067c0 11.718-3.969 22.495-10.635 31.089-6.675-8.594-10.645-19.371-10.645-31.089v-45.067c0-11.718 3.969-22.495 10.645-31.079 6.666 8.583 10.635 19.361 10.635 31.079z" fill="#fff"/><path d="m123.935 97.217v45.067c0 11.718-3.969 22.495-10.635 31.089-6.675-8.594-10.645-19.371-10.645-31.089v-45.067c0-11.718 3.969-22.495 10.645-31.079 6.666 8.583 10.635 19.361 10.635 31.079z" fill="#c1b7d3"/></g><path d="m303.261 148.547c-.338-.506-.805-.872-1.395-1.103l-15.748-6.746c-.371-.141-.726-.214-1.063-.214-.568 0-1.041.174-1.423.529-.383.354-.574.816-.574 1.378 0 .737.354 1.26 1.063 1.575l14.983 6.279-14.983 6.285c-.709.309-1.063.833-1.063 1.57 0 .568.191 1.024.574 1.378s.855.529 1.423.529c.394 0 .748-.068 1.063-.208l15.748-6.707c.591-.259 1.058-.63 1.395-1.125.343-.495.512-1.069.512-1.722 0-.618-.168-1.186-.512-1.698zm-25.571.956c-.411-.383-1.024-.574-1.845-.574h-8.743c-.821 0-1.44.191-1.845.574-.411.383-.619.9-.619 1.547 0 .653.208 1.165.619 1.53.405.371 1.024.551 1.845.551h8.743c.821 0 1.435-.18 1.845-.551.411-.366.613-.878.613-1.53 0-.647-.203-1.164-.613-1.547zm-18.421 0c-.411-.383-1.024-.574-1.845-.574h-8.743c-.821 0-1.44.191-1.845.574-.411.383-.619.9-.619 1.547 0 .653.208 1.165.619 1.53.405.371 1.024.551 1.845.551h8.743c.821 0 1.435-.18 1.845-.551.411-.366.613-.878.613-1.53 0-.647-.202-1.164-.613-1.547zm-18.421 0c-.411-.383-1.03-.574-1.845-.574h-8.749c-.816 0-1.435.191-1.845.574-.411.383-.613.9-.613 1.547 0 .653.203 1.165.613 1.53.411.371 1.03.551 1.845.551h8.749c.816 0 1.435-.18 1.845-.551.411-.366.613-.878.613-1.53.001-.647-.202-1.164-.613-1.547zm-12.816-18.758c-.439-.383-.945-.574-1.508-.574-.456 0-.866.124-1.232.383-.371.253-.636.647-.805 1.187l-9.852 30.861c-.084.253-.124.506-.124.759 0 .596.219 1.086.658 1.469s.94.568 1.502.568c.456 0 .866-.124 1.232-.377.371-.259.636-.653.81-1.193l9.846-30.855c.084-.259.124-.512.124-.765.001-.597-.218-1.081-.651-1.463zm-18.303 25.785-14.837-6.223-.146-.062.444-.186 14.539-6.093c.709-.315 1.063-.838 1.063-1.575 0-.563-.191-1.024-.574-1.378s-.855-.529-1.424-.529c-.337 0-.692.073-1.058.214l-3.955 1.693-11.793 5.053c-.596.231-1.063.596-1.401 1.103-.343.512-.512 1.08-.512 1.699 0 .653.169 1.227.512 1.722.276.405.641.731 1.097.979.096.051.197.101.304.146l15.748 6.707c.309.141.664.208 1.058.208.568 0 1.041-.174 1.424-.529.383-.354.574-.81.574-1.378 0-.738-.354-1.261-1.063-1.571zm53.45-35.991c-.411-.383-1.024-.574-1.845-.574h-8.743c-.821 0-1.44.191-1.845.574-.411.383-.619.9-.619 1.547 0 .653.208 1.165.619 1.53.405.366 1.024.551 1.845.551h8.743c.821 0 1.435-.186 1.845-.551.411-.366.613-.878.613-1.53.001-.647-.202-1.165-.613-1.547zm-18.42 0c-.411-.383-1.024-.574-1.845-.574h-8.743c-.821 0-1.44.191-1.845.574-.411.383-.619.9-.619 1.547 0 .653.208 1.165.619 1.53.405.366 1.024.551 1.845.551h8.743c.821 0 1.435-.186 1.845-.551.411-.366.613-.878.613-1.53 0-.647-.203-1.165-.613-1.547zm-18.421 0c-.411-.383-1.03-.574-1.845-.574h-8.743c-.821 0-1.44.191-1.851.574s-.613.9-.613 1.547c0 .653.202 1.165.613 1.53.411.366 1.03.551 1.851.551h8.743c.816 0 1.435-.186 1.845-.551.411-.366.613-.878.613-1.53 0-.647-.202-1.165-.613-1.547zm-18.421 0c-.411-.383-1.03-.574-1.845-.574h-8.749c-.821 0-1.435.191-1.845.574-.411.383-.613.9-.613 1.547 0 .653.202 1.165.613 1.53.411.366 1.024.551 1.845.551h8.749c.816 0 1.435-.186 1.845-.551.405-.366.613-.878.613-1.53.001-.647-.208-1.165-.613-1.547zm-18.42 0c-.411-.383-1.03-.574-1.851-.574h-8.743c-.821 0-1.435.191-1.845.574-.411.383-.613.9-.613 1.547 0 .653.203 1.165.613 1.53.411.366 1.024.551 1.845.551h8.743c.821 0 1.44-.186 1.851-.551.405-.366.613-.878.613-1.53 0-.647-.208-1.165-.613-1.547zm73.682-19.704c-.411-.383-1.024-.574-1.845-.574h-8.743c-.821 0-1.44.191-1.845.574-.411.383-.619.9-.619 1.547 0 .653.208 1.165.619 1.53.405.366 1.024.551 1.845.551h8.743c.821 0 1.435-.186 1.845-.551.411-.366.613-.878.613-1.53.001-.647-.202-1.164-.613-1.547zm-18.42 0c-.411-.383-1.024-.574-1.845-.574h-8.743c-.821 0-1.44.191-1.845.574-.411.383-.619.9-.619 1.547 0 .653.208 1.165.619 1.53.405.366 1.024.551 1.845.551h8.743c.821 0 1.435-.186 1.845-.551.411-.366.613-.878.613-1.53 0-.647-.203-1.164-.613-1.547zm-18.421 0c-.411-.383-1.03-.574-1.845-.574h-8.743c-.821 0-1.44.191-1.851.574s-.613.9-.613 1.547c0 .653.202 1.165.613 1.53.411.366 1.03.551 1.851.551h8.743c.816 0 1.435-.186 1.845-.551.411-.366.613-.878.613-1.53 0-.647-.202-1.164-.613-1.547zm-18.421 0c-.411-.383-1.03-.574-1.845-.574h-8.749c-.821 0-1.435.191-1.845.574-.411.383-.613.9-.613 1.547 0 .653.202 1.165.613 1.53.411.366 1.024.551 1.845.551h8.749c.816 0 1.435-.186 1.845-.551.405-.366.613-.878.613-1.53.001-.647-.208-1.164-.613-1.547zm-18.42 0c-.411-.383-1.03-.574-1.851-.574h-8.743c-.821 0-1.435.191-1.845.574-.411.383-.613.9-.613 1.547 0 .653.203 1.165.613 1.53.411.366 1.024.551 1.845.551h8.743c.821 0 1.44-.186 1.851-.551.405-.366.613-.878.613-1.53 0-.647-.208-1.164-.613-1.547zm42.856-20.66c-.338-.506-.805-.878-1.401-1.103l-15.748-6.746c-.366-.146-.72-.214-1.063-.214-.563 0-1.035.174-1.418.529s-.574.816-.574 1.378c0 .737.354 1.26 1.063 1.57l14.983 6.285-14.983 6.285c-.709.309-1.063.833-1.063 1.57 0 .563.191 1.024.574 1.378s.855.529 1.418.529c.4 0 .754-.067 1.063-.214l15.748-6.707c.596-.253 1.063-.625 1.401-1.12s.506-1.069.506-1.722c0-.623-.169-1.186-.506-1.698zm-25.572.957c-.411-.383-1.03-.574-1.851-.574h-8.743c-.821 0-1.435.191-1.845.574-.411.383-.613.9-.613 1.547 0 .653.202 1.165.613 1.53.411.366 1.024.551 1.845.551h8.743c.821 0 1.44-.186 1.851-.551.405-.366.613-.878.613-1.53 0-.647-.208-1.165-.613-1.547zm-18.421 0c-.411-.383-1.03-.574-1.851-.574h-8.743c-.821 0-1.435.191-1.845.574-.411.383-.613.9-.613 1.547 0 .653.202 1.165.613 1.53.411.366 1.024.551 1.845.551h8.743c.821 0 1.44-.186 1.851-.551.405-.366.613-.878.613-1.53 0-.647-.208-1.165-.613-1.547zm-18.426 0c-.411-.383-1.024-.574-1.845-.574h-8.743c-.821 0-1.435.191-1.845.574-.411.383-.613.9-.613 1.547 0 .653.202 1.165.613 1.53.411.366 1.024.551 1.845.551h8.743c.821 0 1.435-.186 1.845-.551.411-.366.619-.878.619-1.53 0-.647-.208-1.165-.619-1.547zm-18.865 7.027-14.983-6.285 14.983-6.285c.709-.309 1.063-.833 1.063-1.57 0-.563-.191-1.024-.574-1.378s-.855-.529-1.423-.529c-.338 0-.692.068-1.063.214l-15.743 6.746c-.596.225-1.063.596-1.401 1.103-.343.512-.512 1.075-.512 1.699 0 .653.169 1.227.512 1.722.338.495.805.866 1.401 1.12l15.743 6.707c.315.146.669.214 1.063.214.568 0 1.041-.174 1.423-.529.383-.354.574-.816.574-1.378 0-.738-.354-1.262-1.063-1.571z" fill="#c0405c"/></g></g></svg>