<?xml version="1.0" encoding="utf-8"?>
<!-- Generator: Adobe Illustrator 23.1.1, SVG Export Plug-In . SVG Version: 6.00 Build 0)  -->
<svg version="1.1" id="Layer_1" xmlns="http://www.w3.org/2000/svg" xmlns:xlink="http://www.w3.org/1999/xlink" x="0px" y="0px"
	 viewBox="0 0 504 93.6" style="enable-background:new 0 0 504 93.6;" xml:space="preserve">
<style type="text/css">
	.st0{fill:#21ABB0;}
	.st1{fill:#2A3141;}
</style>
<title>Logo-Embold-Original</title>
<g>
	<path class="st0" d="M64.2,54.1H44.4c-2.6-0.1-4.6-2.2-4.5-4.8c0.1-2.4,2-4.4,4.5-4.5h19.8c2.6-0.1,4.7,1.9,4.8,4.5
		s-1.9,4.7-4.5,4.8C64.4,54.1,64.3,54.1,64.2,54.1z"/>
	<path class="st0" d="M99.4,54.1H79.6c-2.6-0.1-4.6-2.2-4.5-4.8c0.1-2.4,2-4.4,4.5-4.5h19.8c2.6,0.1,4.6,2.2,4.5,4.8
		C103.8,52.1,101.8,54.1,99.4,54.1z"/>
	<path class="st0" d="M28.7,54.1H8.9c-2.6-0.1-4.6-2.2-4.5-4.8c0.1-2.4,2-4.4,4.5-4.5h19.8c2.6-0.1,4.7,1.9,4.8,4.5S31.6,54,29,54.1
		C28.9,54.1,28.8,54.1,28.7,54.1z"/>
	<path class="st0" d="M99.4,17.5H79.6c-2.6-0.1-4.6-2.2-4.5-4.8c0.1-2.4,2-4.4,4.5-4.5h19.8c2.6,0.1,4.6,2.2,4.5,4.8
		C103.8,15.5,101.8,17.5,99.4,17.5z"/>
	<path class="st0" d="M63.9,17.5H44.1c-2.6-0.1-4.6-2.2-4.5-4.8c0.1-2.4,2-4.4,4.5-4.5h19.8c2.6,0.1,4.6,2.2,4.5,4.8
		C68.3,15.5,66.3,17.5,63.9,17.5z"/>
	<path class="st0" d="M10.8,17.5H9c-2.6-0.1-4.6-2.2-4.5-4.8c0.1-2.4,2-4.4,4.5-4.5h1.8c2.6,0.1,4.6,2.2,4.5,4.8
		C15.2,15.5,13.2,17.5,10.8,17.5z"/>
	<path class="st0" d="M46.3,35.8h-1.9c-2.6-0.1-4.6-2.2-4.5-4.8c0.1-2.4,2-4.4,4.5-4.5h1.8c2.6,0.1,4.6,2.2,4.5,4.8
		C50.7,33.8,48.7,35.8,46.3,35.8L46.3,35.8z"/>
	<path class="st0" d="M63.9,35.8h-1.8c-2.6,0.1-4.7-1.9-4.8-4.5s1.9-4.7,4.5-4.8c0.1,0,0.2,0,0.3,0h1.8c2.6,0.1,4.6,2.2,4.5,4.8
		C68.3,33.8,66.3,35.8,63.9,35.8z"/>
	<path class="st0" d="M81.5,35.8h-1.8c-2.6-0.1-4.6-2.2-4.5-4.8c0.1-2.4,2-4.4,4.5-4.5h1.8c2.6-0.1,4.7,1.9,4.8,4.5
		s-1.9,4.7-4.5,4.8C81.7,35.9,81.6,35.9,81.5,35.8z"/>
	<path class="st0" d="M28.7,35.8H8.9c-2.6-0.1-4.6-2.2-4.5-4.8c0.1-2.4,2-4.4,4.5-4.5h19.8c2.6-0.1,4.7,1.9,4.8,4.5
		s-1.9,4.7-4.5,4.8C28.9,35.9,28.8,35.9,28.7,35.8z"/>
	<path class="st0" d="M46.3,88.8h-1.9c-2.6-0.1-4.6-2.2-4.5-4.8c0.1-2.4,2-4.4,4.5-4.5h1.8c2.6,0.1,4.6,2.2,4.5,4.8
		C50.7,86.7,48.7,88.7,46.3,88.8L46.3,88.8z"/>
	<path class="st0" d="M63.9,88.8h-1.8c-2.6,0.1-4.7-1.9-4.8-4.5s1.9-4.7,4.5-4.8c0.1,0,0.2,0,0.3,0h1.8c2.6,0.1,4.6,2.2,4.5,4.8
		C68.3,86.7,66.3,88.7,63.9,88.8z"/>
	<path class="st0" d="M28.7,88.8H8.9c-2.6-0.1-4.6-2.2-4.5-4.8c0.1-2.4,2-4.4,4.5-4.5h19.8c2.6-0.1,4.7,1.9,4.8,4.5
		s-1.9,4.7-4.5,4.8C28.9,88.8,28.8,88.8,28.7,88.8z"/>
	<path class="st0" d="M10.8,70.5H9c-2.6-0.1-4.6-2.2-4.5-4.8c0.1-2.4,2-4.4,4.5-4.5h1.8c2.6,0.1,4.6,2.2,4.5,4.8
		C15.2,68.4,13.2,70.4,10.8,70.5z"/>
	<path class="st0" d="M63.9,70.5h-1.8c-2.6,0.1-4.7-1.9-4.8-4.5c-0.1-2.6,1.9-4.7,4.5-4.8c0.1,0,0.2,0,0.3,0h1.8
		c2.6,0.1,4.6,2.2,4.5,4.8C68.3,68.4,66.3,70.4,63.9,70.5z"/>
	<path class="st0" d="M81.5,70.5h-1.8c-2.6-0.1-4.6-2.2-4.5-4.8c0.1-2.4,2-4.4,4.5-4.5h1.8c2.6-0.1,4.7,1.9,4.8,4.5
		c0.1,2.6-1.9,4.7-4.5,4.8C81.7,70.5,81.6,70.5,81.5,70.5z"/>
	<path class="st0" d="M46.3,70.5H26.5c-2.6,0.1-4.7-1.9-4.8-4.5c-0.1-2.6,1.9-4.7,4.5-4.8c0.1,0,0.2,0,0.3,0h19.8
		c2.6,0.1,4.6,2.2,4.5,4.8C50.7,68.4,48.7,70.4,46.3,70.5z"/>
	<path class="st1" d="M177.5,65.4h-39.4c1.6,5.1,6.1,8.1,12.6,8.1c5.1,0,9.4-2.6,10-4.6h16.2c-1.4,8.1-10.9,19.5-27.5,19.5
		c-17,0-29.1-11.4-29.1-27.8c0-17.6,13.6-28.4,29.1-28.4c15.4,0,28.4,10.7,28.4,27.1C177.9,60.8,177.7,62.8,177.5,65.4z M160.7,55.4
		c-0.1-5.3-4.8-8.8-11-8.8c-5.2,0-10,2.3-11.8,8.8H160.7z"/>
	<path class="st1" d="M273.2,58.4v27.3c0,0.9-0.8,1.7-1.7,1.7h-13.7c-0.9,0-1.7-0.8-1.7-1.7V59.8c0-8.3-4.2-10.9-8.5-10.9
		c-5.2,0-9.1,2.8-9.2,11.3v25.4c0,0.9-0.8,1.7-1.7,1.7H223c-0.9,0-1.7-0.8-1.7-1.7V59.8c0-8.3-4.2-10.9-8.4-10.9
		c-4.6,0-9.4,1.9-9.4,10.9v25.9c0,0.9-0.8,1.7-1.7,1.7h-13.6c-0.9,0-1.7-0.8-1.7-1.7V35.3c0-0.9,0.8-1.7,1.7-1.7h13.7
		c0.9,0,1.7,0.8,1.7,1.7v8.2c1.4-7.9,9.1-11.3,14.5-11.3c8,0,14,3.7,17.1,10.2c3.7-7.3,12-10.2,17.7-10.2
		C266.3,32.2,273.2,41.9,273.2,58.4z"/>
	<path class="st1" d="M342.8,60.4c0,17.4-12.7,28.1-26.2,28.1c-5.5,0-12.7-2.1-16.6-7v4.3c0,0.9-0.8,1.7-1.7,1.7h-13.7
		c-0.9,0-1.7-0.8-1.7-1.7V10.3c0-0.9,0.8-1.7,1.7-1.7h13.7c0.9,0,1.7,0.8,1.7,1.7v29c3.9-5,11.1-7,16.6-7
		C330.1,32.3,342.8,42.9,342.8,60.4z M325.5,60.4c0-6.8-5.8-12.1-12.5-12.1c-6.5,0-12.5,5.2-12.5,12.1s5.9,12.1,12.5,12.1
		C319.7,72.5,325.5,67.2,325.5,60.4L325.5,60.4z"/>
	<path class="st1" d="M348.6,60.4c0-17.1,13.9-28.2,29.2-28.2s29.3,11.1,29.3,28.2c0,17-14,28.1-29.3,28.1
		C362.4,88.4,348.6,77.3,348.6,60.4z M389.7,60.4c0-7.4-5.3-12.4-11.9-12.4c-6.6,0-11.9,5-11.9,12.4s5.3,12.2,11.9,12.2
		C384.3,72.6,389.7,67.8,389.7,60.4L389.7,60.4z"/>
	<path class="st1" d="M416.7,8.6h13.7c0.9,0,1.7,0.8,1.7,1.7v75.4c0,0.9-0.8,1.7-1.7,1.7h-13.7c-0.9,0-1.7-0.8-1.7-1.7V10.3
		C415,9.4,415.8,8.6,416.7,8.6z"/>
	<path class="st1" d="M500.1,10.3v75.4c0,0.9-0.8,1.7-1.7,1.7h-13.5c-0.9,0-1.7-0.8-1.7-1.7v-4.4c-3.9,5.1-11.2,7.2-16.8,7.2
		c-13.4,0-26.1-10.6-26.1-28.1s12.7-28.1,26.1-28.1c5.5,0,12.8,2.1,16.8,7.2V10.3c0-0.9,0.8-1.7,1.7-1.7h13.5
		C499.3,8.6,500.1,9.4,500.1,10.3z M482.4,60.4c0-6.9-5.9-12.1-12.4-12.1c-6.7,0-12.5,5.3-12.5,12.1s5.8,12.1,12.5,12.1
		C476.6,72.5,482.4,67.3,482.4,60.4z"/>
</g>
</svg>
