<svg xmlns="http://www.w3.org/2000/svg" width="800" height="800" enable-background="new 0 0 800 800" viewBox="0 0 800 800"><polygon fill="#0c5285" points="264.134 371.869 265.866 377.669 259.733 379.538 257.998 373.737"/><path fill="#0c5285" d="M538.867,435.534c1.934,1.999,3.132,4.733,3.132,7.669c0,3.066-1.27,5.801-3.262,7.8l-0.071,0.13
				c-1.999,1.934-4.733,3.139-7.729,3.139c-3.008,0-5.807-1.205-7.734-3.203l-0.137-0.131c-1.934-2.005-3.131-4.732-3.131-7.734
				c0-3.001,1.197-5.735,3.196-7.734l0.137-0.137c1.999-1.934,4.727-3.131,7.669-3.131c3.061,0,5.795,1.27,7.8,3.268
				L538.867,435.534z M535.534,443.203c0-1.27-0.534-2.402-1.335-3.203c-0.865-0.865-1.998-1.334-3.262-1.334
				c-1.275,0-2.408,0.469-3.203,1.334c-0.872,0.801-1.334,1.934-1.334,3.203c0,1.335,0.462,2.468,1.27,3.269
				c0.859,0.866,1.992,1.328,3.268,1.328c1.264,0,2.396-0.462,3.262-1.328C535,445.671,535.534,444.538,535.534,443.203z"/><path fill="#fff" d="M534.199,440c0.801,0.801,1.335,1.934,1.335,3.203c0,1.335-0.534,2.468-1.335,3.269
				c-0.865,0.866-1.998,1.328-3.262,1.328c-1.275,0-2.408-0.462-3.268-1.328c-0.808-0.801-1.27-1.934-1.27-3.269
				c0-1.27,0.462-2.402,1.334-3.203c0.795-0.865,1.928-1.334,3.203-1.334C532.201,438.666,533.334,439.135,534.199,440z"/><path fill="#0c5285" d="M531.068 305.801c1.536.866 2.063 2.865 1.133 4.401-.268.469-.664.866-1.133 1.198l-11.732 6.738c-1.536.931-3.535.397-4.4-1.139-.873-1.53-.339-3.529 1.133-4.395l6.927-4.004-6.927-3.998c-1.472-.938-2.006-2.871-1.133-4.401.865-1.537 2.864-2.064 4.4-1.198L531.068 305.801zM512.734 338.802c1.537 1.732 2.331 3.998 2.136 6.334l-16.472 178.464c-.332 3.47-2.734 6.335-6.067 7.2L418.464 550.6c-.664.201-1.394.267-2.136.267-.729 0-1.393-.065-2.129-.267L340.4 530.801c-3.333-.931-5.735-3.802-5.999-7.2l-16.468-178.464c-.199-2.337.534-4.603 2.067-6.334 1.599-1.667 3.799-2.669 6.068-2.669h11.465c-1.865-1.465-3.066-3.795-3.066-6.399V296.4c0-4.531 3.666-8.197 8.2-8.197h11.468c1.999 0 3.864.729 5.267 1.934 1.465-1.204 3.265-1.934 5.264-1.934h11.536c.866 0 1.667.13 2.464.397.801-.267 1.602-.397 2.536-.397h31.729c.873 0 1.667.13 2.475.397.794-.267 1.666-.397 2.525-.397h12.006c2.799 0 5.469 1.465 6.927 3.867l.403.664.469-.664c1.537-2.402 4.128-3.867 6.928-3.867h12.005c1.003 0 1.934.195 2.864.534.873-.339 1.869-.534 2.865-.534h11.471c4.531 0 8.203 3.666 8.203 8.197v14.134h7.995c4.531 0 8.203 3.665 8.203 8.203v10.996c0 2.604-1.198 4.935-3.138 6.399h11.536C508.998 336.133 511.198 337.136 512.734 338.802zM490.195 522.871l16.472-178.535H326.068l16.465 178.535 73.795 19.799L490.195 522.871zM490.065 329.733v-10.996h-16.198V296.4h-11.471v33.333H490.065zM456.667 329.733V296.4h-12.005l-7.396 11.738-7.33-11.738H417.93v33.333h11.27v-16.465l7.937 11.797h.13l7.93-11.797v16.465H456.667zM434.336 336.133h5.729c-.931-.729-1.731-1.731-2.266-2.864-.195 0-.469 0-.664 0-.202 0-.403 0-.534 0C436.068 334.401 435.268 335.404 434.336 336.133zM412.93 307.468V296.4h-31.729v11.068h10.065v22.266H402.8v-22.266H412.93zM407.93 336.133h4.87c-1.067-.866-1.862-1.934-2.396-3.196C409.87 334.199 408.998 335.267 407.93 336.133zM381.267 336.133h4.935c-1.067-.866-1.934-1.934-2.467-3.196C383.2 334.199 382.334 335.267 381.267 336.133zM376.201 329.733V296.4h-11.536v11.002h-10.531V296.4h-11.468v33.333h11.468v-11.133h10.531v11.133H376.201z"/><path fill="#ef586c" d="M506.667,344.336l-16.472,178.535l-73.867,19.799l-73.795-19.799l-16.465-178.535H506.667z
				 M471.003,402.734l2.063-21.934H416.4h-56.667l6.067,66.27h50.6h27.871l-2.67,28.398L416.4,482.07h-0.072l-25.195-6.602
				l-1.667-18.268H366.8l3.2,35.201l46.328,12.402h0.072l46.334-12.402l6.198-67.266H416.4h-29.867l-2.067-22.402H416.4H471.003z"/><path fill="#0c5285" d="M489.467,548.933c1.731,0,3.203,1.472,3.203,3.203c0,1.797-1.472,3.269-3.203,3.269H472.67
				c-1.804,0-3.203-1.472-3.203-3.269c0-1.731,1.399-3.203,3.203-3.203H489.467z"/><polygon fill="#fff" points="490.065 318.737 490.065 329.733 462.396 329.733 462.396 296.4 473.867 296.4 473.867 318.737"/><path fill="#0c5285" d="M478.203 557.533c1.797 0 3.262 1.471 3.262 3.203 0 1.797-1.465 3.268-3.262 3.268h-35.807c-1.797 0-3.262-1.471-3.262-3.268 0-1.732 1.465-3.203 3.262-3.203H478.203zM473.066 380.801l-2.063 21.934H416.4h-31.934l2.067 22.402H416.4h52.532l-6.198 67.266L416.4 504.805h-.072L370 492.402l-3.2-35.201h22.666l1.667 18.268 25.195 6.602h.072l25.201-6.602 2.67-28.398H416.4h-50.6l-6.067-66.27H416.4 473.066zM463.529 394.538l.533-5.469H416.4h-47.667l4.6 49.798H416.4h27.871c4.531 0 8.196 3.666 8.196 8.203 0 .397-.071.866-.071 1.328l-2.598 27.807c-.332 3.463-2.8 6.328-6.133 7.193l-24.929 6.472c-.742.267-1.602.397-2.409.397-.664 0-1.393-.065-2.057-.268l-25.206-6.602c-3.333-.865-5.801-3.795-6.068-7.193l-.999-10.801h-6.198l1.865 20.533 38.734 10.397 38.73-10.397 4.805-52.604H416.4h-29.867c-4.268 0-7.799-3.197-8.2-7.468l-2.067-22.396c-.199-2.266.534-4.538 2.132-6.27 1.533-1.732 3.734-2.663 6.068-2.663H416.4 463.529z"/><path fill="#fff" d="M464.063,389.069l-0.533,5.469H416.4h-31.934c-2.334,0-4.535,0.931-6.068,2.663
				c-1.598,1.732-2.331,4.004-2.132,6.27l2.067,22.396c0.4,4.271,3.932,7.468,8.2,7.468H416.4h43.535l-4.805,52.604l-38.73,10.397
				l-38.734-10.397l-1.865-20.533h6.198l0.999,10.801c0.267,3.398,2.734,6.328,6.068,7.193L414.271,490
				c0.664,0.202,1.393,0.268,2.057,0.268c0.808,0,1.667-0.131,2.409-0.397l24.929-6.472c3.333-0.865,5.801-3.73,6.133-7.193
				l2.598-27.807c0-0.462,0.071-0.931,0.071-1.328c0-4.537-3.665-8.203-8.196-8.203H416.4h-43.067l-4.6-49.798H416.4H464.063z"/><polygon fill="#fff" points="456.667 296.4 456.667 329.733 445.195 329.733 445.195 313.269 437.266 325.065 437.136 325.065 429.199 313.269 429.199 329.733 417.93 329.733 417.93 296.4 429.936 296.4 437.266 308.138 444.662 296.4"/><path fill="#fff" d="M440.065,336.133h-5.729c0.932-0.729,1.732-1.731,2.266-2.864c0.131,0,0.332,0,0.534,0
				c0.195,0,0.469,0,0.664,0C438.334,334.401,439.135,335.404,440.065,336.133z"/><polygon fill="#fff" points="412.93 296.4 412.93 307.468 402.8 307.468 402.8 329.733 391.267 329.733 391.267 307.468 381.201 307.468 381.201 296.4"/><path fill="#fff" d="M412.8 336.133h-4.87c1.068-.866 1.94-1.934 2.475-3.196C410.938 334.199 411.732 335.267 412.8 336.133zM386.201 336.133h-4.935c1.067-.866 1.934-1.934 2.467-3.196C384.268 334.199 385.134 335.267 386.201 336.133z"/><polygon fill="#fff" points="376.201 296.4 376.201 329.733 364.665 329.733 364.665 318.601 354.134 318.601 354.134 329.733 342.666 329.733 342.666 296.4 354.134 296.4 354.134 307.402 364.665 307.402 364.665 296.4"/><path fill="#0c5285" d="M349.535 246.4c.465 1.738-.534 3.535-2.269 3.932l-5.732 1.602c-1.735.404-3.535-.599-3.932-2.266-.469-1.731.531-3.535 2.266-3.997l5.732-1.537C347.334 243.666 349.066 244.733 349.535 246.4zM341.533 260.332c.466 1.738-.599 3.47-2.266 3.939-1.735.462-3.535-.605-4-2.337l-1.468-5.534c-.465-1.732.534-3.529 2.269-3.998 1.732-.469 3.467.599 3.932 2.331L341.533 260.332zM337.067 243.802c.465 1.732-.534 3.463-2.269 3.932-1.732.469-3.467-.534-3.932-2.266l-1.465-5.403c-.4-1.732.599-3.464 2.331-3.933 1.667-.462 3.467.599 3.936 2.266L337.067 243.802zM333.467 250.736c.466 1.732-.534 3.463-2.266 3.932l-5.869 1.602c-1.731.397-3.467-.599-3.932-2.337-.465-1.732.599-3.464 2.266-3.933l5.869-1.53C331.267 248.001 332.998 249.004 333.467 250.736zM319.6 531.335c1.602 1.602 2.533 3.73 2.533 6.067 0 2.331-.931 4.531-2.533 6.068-1.533 1.529-3.665 2.467-5.999 2.467-2.399 0-4.535-.938-6.068-2.467-1.533-1.537-2.467-3.737-2.467-6.068 0-2.337.934-4.466 2.467-6.067 1.533-1.465 3.668-2.468 6.068-2.468C315.935 528.867 318.066 529.87 319.6 531.335zM315.667 537.402c0-.533-.267-1.067-.602-1.465-.4-.403-.931-.605-1.465-.605-.603 0-1.133.202-1.533.605-.335.397-.603.932-.603 1.465 0 .6.267 1.133.603 1.465.4.404.931.671 1.533.671.534 0 1.064-.267 1.465-.671C315.4 538.535 315.667 538.002 315.667 537.402z"/><path fill="#fff" d="M315.065,535.938c0.335,0.397,0.602,0.932,0.602,1.465c0,0.6-0.267,1.133-0.602,1.465
				c-0.4,0.404-0.931,0.671-1.465,0.671c-0.603,0-1.133-0.267-1.533-0.671c-0.335-0.332-0.603-0.865-0.603-1.465
				c0-0.533,0.267-1.067,0.603-1.465c0.4-0.403,0.931-0.605,1.533-0.605C314.134,535.332,314.665,535.534,315.065,535.938z"/><polygon fill="#0c5285" points="276.465 368.203 278.2 374.004 272.067 375.801 270.332 370.065"/><polygon fill="#0c5285" points="272.067 375.801 273.799 381.602 267.666 383.47 265.935 377.669"/><polygon fill="#0c5285" points="268.601 364.271 270.332 370.065 264.199 371.934 262.468 366.133"/></svg>