<svg xmlns="http://www.w3.org/2000/svg" xmlns:xlink="http://www.w3.org/1999/xlink" width="324.944" height="326.615" viewBox="0 0 324.944 326.615">
  <defs>
    <linearGradient id="linear-gradient" x1="0.5" x2="0.5" y2="1" gradientUnits="objectBoundingBox">
      <stop offset="0" stop-color="#ff7676"/>
      <stop offset="1" stop-color="#ffae4e"/>
    </linearGradient>
  </defs>
  <g id="illustration" transform="translate(-26.7 -131.26)">
    <g id="Groupe_2271" data-name="Groupe 2271" transform="translate(56.916 131.26)">
      <g id="Groupe_2266" data-name="Groupe 2266" transform="translate(23.519 147.415)">
        <path id="Tracé_332" data-name="Tracé 332" d="M-618.8,266.074l1.77,15.253-16.639,1.687-1.525-15.047Z" transform="translate(663.827 -229.284)" fill="#fddebc"/>
        <path id="Tracé_333" data-name="Tracé 333" d="M-618.751,266.186l.716,6.17-16.727-.486-.628-6.2Z" transform="translate(663.774 -229.397)" fill="#f3fcff"/>
        <g id="Groupe_2265" data-name="Groupe 2265">
          <path id="Tracé_334" data-name="Tracé 334" d="M-655.937,248.6l22.276,18.226,1.054,7.474,24.161,1.862.835-15.13-47.888-21.2-1.85,4.718A3.293,3.293,0,0,0-655.937,248.6Z" transform="translate(657.576 -236.616)" fill="#fff"/>
          <path id="Tracé_335" data-name="Tracé 335" d="M-607.853,258.5a1.159,1.159,0,0,0-.687-1.137l-45.038-19.968a1.067,1.067,0,0,0-1.38.6l-.994,2.536,47.888,21.2Z" transform="translate(658.029 -237.318)" fill="#f2f2f2"/>
          <line id="Ligne_9" data-name="Ligne 9" x1="11.01" y1="1.431" transform="translate(21.265 34.758)" fill="none" stroke="#ff965e" stroke-linecap="round" stroke-miterlimit="10" stroke-width="0.894"/>
          <line id="Ligne_10" data-name="Ligne 10" x1="11.01" y1="1.431" transform="translate(21.603 31.771)" fill="none" stroke="#ff965e" stroke-linecap="round" stroke-miterlimit="10" stroke-width="0.894"/>
        </g>
        <path id="Tracé_336" data-name="Tracé 336" d="M-615.559,274.323l21.34,89.312-36.732,3.532-5.947-90.784Z" transform="translate(663.352 -226.98)" fill="#28bbe2"/>
        <path id="Tracé_337" data-name="Tracé 337" d="M-604.13,314.049l-30.213,1.155,2.677,40.864,36.732-3.532Z" transform="translate(664.066 -215.882)" fill="#007cb6"/>
      </g>
      <path id="Tracé_338" data-name="Tracé 338" d="M-465.837,210.35l-10.144,45.322-44.4,19.029c-5.426,2.368-5.106,7.417-5.106,13.336h0c1.982,6.463,5.211,8.49,9.865,6.46l54.317-23.7a4.571,4.571,0,0,0,2.694-3.531l7.94-54.713Z" transform="translate(717.995 -97.437)" fill="#fddebc"/>
      <path id="Tracé_339" data-name="Tracé 339" d="M-461.663,219.408c.881-5.531,3.349-15.329.669-23.917s-10.73-10.1-12.854-9.6-5.948,2.078-3.592,7.4,2.391,8.61,1.091,9.08-2.848-1.841-5.064-4.228c-2.405-2.589-7.085-.637-3.338,4.99s8.056,10.479,7.923,14.079Z" transform="translate(728.985 -104.294)" fill="#fddebc"/>
      <g id="Groupe_2267" data-name="Groupe 2267" transform="translate(238.149 70.236)">
        <path id="Tracé_340" data-name="Tracé 340" d="M-454.593,215.15l-11.793,3.212a1.378,1.378,0,0,1-1.452-.485l-21.684-27.959a1.379,1.379,0,0,1-.1-1.545l6.153-10.5a1.38,1.38,0,0,1,2.281-.148l27.325,35.249A1.38,1.38,0,0,1-454.593,215.15Z" transform="translate(489.813 -176.937)" fill="#f3fcff"/>
        <path id="Tracé_341" data-name="Tracé 341" d="M-487.569,185.366a.766.766,0,0,1,.032-.806l1.757-2.932c.162-.271.412-.349.557-.175a.769.769,0,0,1-.031.806l-1.758,2.932C-487.175,185.462-487.423,185.54-487.569,185.366Z" transform="translate(490.413 -175.772)" fill="#3e65ae"/>
        <path id="Tracé_342" data-name="Tracé 342" d="M-468.242,215.408a.236.236,0,0,1-.166-.09l-19.783-25.539a.238.238,0,0,1-.018-.265l6.346-10.244a.233.233,0,0,1,.229-.116.226.226,0,0,1,.161.09l24.995,32.286a.233.233,0,0,1,.038.22.233.233,0,0,1-.162.154l-11.558,3.5Z" transform="translate(490.253 -176.389)" fill="url(#linear-gradient)"/>
        <path id="Tracé_343" data-name="Tracé 343" d="M-454.094,212.574l-1.2,1.942a1.389,1.389,0,0,0-.148-1.487l-27.321-35.254a1.353,1.353,0,0,0-1.429-.48l2.765-.272a1.2,1.2,0,0,1,1.212.423l26.108,33.687A1.2,1.2,0,0,1-454.094,212.574Z" transform="translate(491.384 -176.992)" fill="#bce3f6"/>
      </g>
      <path id="Tracé_344" data-name="Tracé 344" d="M-461.59,199.207c-.005,2.188-2.071,4.8-5.794,3.115-3.294-1.49-8.141-7.286-8.948-10.866s3.285-9.081,8.583-3.855C-462.911,192.373-461.582,196.232-461.59,199.207Z" transform="translate(731.7 -104.392)" fill="#ffecd2"/>
      <path id="Tracé_345" data-name="Tracé 345" d="M-588.592,332.355l-70.928,11.623S-577.5,383.967-537.381,367.2s54.441-49.885,54.441-49.885c14.1-1.485,17.951-14.223,14.129-24.154s-10.826-29.552-12.583-31.3-5.822-3.246-5.822-3.246l-14.755-6.206s-12.5-2.738-18.2,1.07-9.782,19.045-9.462,35.708-.928,23.251-18.772,21.125S-582.279,314.918-588.592,332.355Z" transform="translate(680.552 -85.954)" fill="#fff"/>
      <g id="Groupe_2269" data-name="Groupe 2269" transform="translate(4.177 136.587)">
        <rect id="Rectangle_17256" data-name="Rectangle 17256" width="17.545" height="16.725" transform="translate(19.914 59.73) rotate(-76.676)" fill="#ffecd2"/>
        <rect id="Rectangle_17257" data-name="Rectangle 17257" width="6.232" height="16.725" transform="translate(22.521 48.722) rotate(-76.676)" fill="#f3fcff"/>
        <g id="Groupe_2268" data-name="Groupe 2268">
          <path id="Tracé_346" data-name="Tracé 346" d="M-671.6,239.506l18.1,22.383-.491,7.533,23.276,6.745,3.9-14.642-42.565-30.51-2.772,4.242A3.292,3.292,0,0,0-671.6,239.506Z" transform="translate(672.694 -228.251)" fill="#fff"/>
          <path id="Tracé_347" data-name="Tracé 347" d="M-626.679,259.009a1.161,1.161,0,0,0-.441-1.254l-40.022-28.727a1.067,1.067,0,0,0-1.475.31l-1.49,2.28,42.565,30.51Z" transform="translate(673.416 -228.855)" fill="#f2f2f2"/>
          <line id="Ligne_11" data-name="Ligne 11" x1="10.487" y1="3.644" transform="translate(15.666 37.556)" fill="none" stroke="#ff965e" stroke-linecap="round" stroke-miterlimit="10" stroke-width="0.894"/>
          <line id="Ligne_12" data-name="Ligne 12" x1="10.487" y1="3.644" transform="translate(16.606 34.701)" fill="none" stroke="#ff965e" stroke-linecap="round" stroke-miterlimit="10" stroke-width="0.894"/>
        </g>
      </g>
      <path id="Tracé_348" data-name="Tracé 348" d="M-518.541,259.486c-.42,1.089-1.081,4.662,0,9.593.762,3.476,2.174,7.052,1.092,9.568-1.671,3.889-11.348,4.254-15.9-5.225-4.61-9.59-4.937-16.523-2.734-21.223Z" transform="translate(714.667 -85.746)" fill="#fddebc"/>
      <path id="Tracé_349" data-name="Tracé 349" d="M-538.875,305.076c-1.487-.036-3.12-.156-4.935-.372-17.845-2.126-33.878,4.608-40.19,22.045l-54.516,8.934,5.258-59.456-19.869-4.706-22.614,82.3a6.06,6.06,0,0,0,3.947,7.373,156.775,156.775,0,0,0,34.485,6.933c27.06,2.331,77.409,4.8,104.519-6.538a110.92,110.92,0,0,0,14.056-7.081C-538.875,340.591-541.545,314.531-538.875,305.076Z" transform="translate(675.959 -80.348)" fill="#68c7ea"/>
      <path id="Tracé_350" data-name="Tracé 350" d="M-529.665,269.552a9.867,9.867,0,0,0-.572-14.4,10.088,10.088,0,0,0-13.706.775l-38.224,40.579a11.186,11.186,0,0,0-3.106,6.216l-4.145,54.942c-.9,5.527-3.407,15.318-.757,23.914s10.693,10.136,12.818,9.648,5.955-2.055,3.619-7.383-2.359-8.619-1.057-9.083,2.84,1.851,5.048,4.246c2.395,2.6,7.083.663,3.354-4.977s-8.017-10.509-7.871-14.109l7.443-50.875Z" transform="translate(699.594 -85.57)" fill="#ffecd2"/>
      <path id="Tracé_351" data-name="Tracé 351" d="M-516.73,233.29c13.8.058,31.252-7.9,36.115-26.263s-2.108-42.014-19.066-45.15-35.335,15.461-36.379,38.19S-516.73,233.29-516.73,233.29Z" transform="translate(715.032 -111.076)" fill="#251836"/>
      <path id="Tracé_352" data-name="Tracé 352" d="M-515.046,230.572c6.741-.558,23.872-11.848,27.959-29.953s1.947-56.679-30.562-72.527-40.1,2.964-34.066,18.766,10.9,34.685.39,57.266-17.52,43.967-8.76,59.163,26.7,19.27,35.284,17.355c0,0,13.381-3.023,16.3-21.18S-515.046,230.572-515.046,230.572Z" transform="translate(707.223 -122.093)" fill="#291d51"/>
      <path id="Tracé_353" data-name="Tracé 353" d="M-519.176,263.609c-1.213,2.586-18.4-5.469-17.184-8.055l7.2-15.363,18,6.392Z" transform="translate(714.941 -89.1)" fill="#fddebc"/>
      <path id="Tracé_354" data-name="Tracé 354" d="M-532.075,243.819c.262,1.415,2.135,9.525,10.964,11.734a10.607,10.607,0,0,0,4.4.229l4.332-9.2-18-6.392Z" transform="translate(716.156 -89.1)" fill="#ee9681"/>
      <path id="Tracé_355" data-name="Tracé 355" d="M-504.96,254.41h0a18.091,18.091,0,0,1-24.859-6.044l-8.513-13.982a18.091,18.091,0,0,1,6.044-24.859h0a18.089,18.089,0,0,1,24.858,6.044l8.514,13.984A18.089,18.089,0,0,1-504.96,254.41Z" transform="translate(713.67 -98.405)" fill="#ffecd2"/>
      <path id="Tracé_356" data-name="Tracé 356" d="M-520.385,240.467l-9.741,5.9a5.975,5.975,0,0,1-8.206-2.016h0a5.977,5.977,0,0,1,2.016-8.207l9.741-5.9Z" transform="translate(714.166 -91.879)" fill="#ffecd2"/>
      <path id="Tracé_357" data-name="Tracé 357" d="M-529.63,240.377h0a4.468,4.468,0,0,0,1.524-6.132l-6.406-10.642-7.656,4.608,6.406,10.642A4.468,4.468,0,0,0-529.63,240.377Z" transform="translate(713.336 -93.734)" fill="#291d51"/>
      <path id="Tracé_358" data-name="Tracé 358" d="M-528.215,226.986l-12.6,8.83h0a18.566,18.566,0,0,1,4.549-25.86l12.6-8.83h0A18.566,18.566,0,0,1-528.215,226.986Z" transform="translate(712.774 -100.014)" fill="#291d51"/>
      <path id="Tracé_359" data-name="Tracé 359" d="M-570.966,298.341c.139-2.486-3.229-4.741-4.869-5.222-1.58-.464-.242-2.441,2.527-1.861a6.639,6.639,0,0,1,4.882,4.383Z" transform="translate(703.742 -74.863)" fill="#ee9681"/>
      <path id="Tracé_360" data-name="Tracé 360" d="M-485.894,245.775a12.451,12.451,0,0,0,6.708,4.1c1.621.287.667,2.234-2.288,2.309s-7.35-2.595-8.537-4.644Z" transform="translate(727.907 -87.54)" fill="#ee9681"/>
      <path id="Tracé_361" data-name="Tracé 361" d="M-522.871,301.306c-2.41,4.931-15.84,5.4-22.129-4.185" transform="translate(712.545 -73.196)" fill="none" stroke="#fe7679" stroke-miterlimit="10" stroke-width="2.682"/>
      <path id="Tracé_362" data-name="Tracé 362" d="M-643.831,323.216a22.02,22.02,0,0,0-10.745,6.646c-2.09,2.669-3.962-1.066-.184-6.431s11.555-7.286,11.555-7.286Z" transform="translate(681.274 -67.881)" fill="#007cb6" opacity="0.5"/>
      <g id="Groupe_2270" data-name="Groupe 2270" transform="translate(189.348 117.299)">
        <path id="Tracé_363" data-name="Tracé 363" d="M-510.118,227.786c-.685-1.05-8.851-9.136-9.517-8.523s5.363,12.412,6.2,12.278S-510.118,227.786-510.118,227.786Z" transform="translate(530.269 -212.255)" fill="#fddebc"/>
        <path id="Tracé_364" data-name="Tracé 364" d="M-520.38,226.436c.88,1.478-.028,3.64-2.029,4.831s-4.333.958-5.213-.518.029-3.64,2.029-4.831S-521.259,224.96-520.38,226.436Z" transform="translate(527.958 -210.599)" fill="#e76266" opacity="0.253"/>
        <path id="Tracé_365" data-name="Tracé 365" d="M-504.937,219.28c.69,1.575-.48,3.608-2.611,4.542s-4.42.414-5.11-1.16.48-3.608,2.612-4.542S-505.626,217.7-504.937,219.28Z" transform="translate(532.177 -212.695)" fill="#e76266" opacity="0.253"/>
        <path id="Tracé_366" data-name="Tracé 366" d="M-521.053,226.937h0a1.9,1.9,0,0,1-2.546-.837l-.97-1.918a1.9,1.9,0,0,1,.837-2.546h0a1.9,1.9,0,0,1,2.546.837l.97,1.916A1.9,1.9,0,0,1-521.053,226.937Z" transform="translate(528.848 -211.639)" fill="#291d51"/>
        <path id="Tracé_367" data-name="Tracé 367" d="M-512.259,222.055h0a1.808,1.808,0,0,1-2.428-.8l-.924-1.828a1.808,1.808,0,0,1,.8-2.43h0a1.809,1.809,0,0,1,2.43.8l.924,1.829A1.807,1.807,0,0,1-512.259,222.055Z" transform="translate(531.353 -212.932)" fill="#291d51"/>
        <path id="Tracé_368" data-name="Tracé 368" d="M-522.3,219.475a4.22,4.22,0,0,0-4.21,4.068" transform="translate(528.363 -212.186)" fill="none" stroke="#291d51" stroke-miterlimit="10" stroke-width="1.3"/>
        <path id="Tracé_369" data-name="Tracé 369" d="M-517.161,214.286c2.2-1.145,4-.17,4.41,1.1" transform="translate(530.975 -213.778)" fill="none" stroke="#291d51" stroke-miterlimit="10" stroke-width="1.3"/>
        <path id="Tracé_370" data-name="Tracé 370" d="M-511.966,226.118c-.644.383-4.022,3.534-2.776,3.557a6.263,6.263,0,0,0,3.456-1.7C-510.84,227.5-510.458,225.223-511.966,226.118Z" transform="translate(531.574 -210.388)" fill="#ee9681"/>
        <path id="Tracé_371" data-name="Tracé 371" d="M-520.574,233.867c1.785,2.84,9.875,3.839,12.338-1.488" transform="translate(530.021 -208.581)" fill="none" stroke="#291d51" stroke-miterlimit="10" stroke-width="1"/>
      </g>
    </g>
    <path id="Tracé_241" data-name="Tracé 241" d="M-766.883-16.793l1.732-8.07a1.18,1.18,0,0,1,2.307,0l1.734,8.07,8.07,1.732a1.18,1.18,0,0,1,0,2.307l-8.07,1.734-1.734,8.07a1.18,1.18,0,0,1-2.307,0l-1.732-8.07-8.07-1.734a1.18,1.18,0,0,1,0-2.307Z" transform="translate(773.053 620.788) rotate(34)" fill="none" stroke="#ffe568" stroke-miterlimit="10" stroke-width="1.274"/>
    <path id="Tracé_1395" data-name="Tracé 1395" d="M-623.176,203.08l1.734-8.07a1.18,1.18,0,0,1,2.307,0l1.732,8.07,8.07,1.732a1.18,1.18,0,0,1,0,2.307l-8.07,1.734-1.732,8.07a1.18,1.18,0,0,1-2.307,0l-1.734-8.07-8.07-1.734a1.18,1.18,0,0,1,0-2.307Z" transform="translate(966.108 371.478) rotate(19)" fill="none" stroke="#f2f2f2" stroke-miterlimit="10" stroke-width="1.274"/>
    <path id="Tracé_1396" data-name="Tracé 1396" d="M-430.388,184.663a4.645,4.645,0,0,1,4.644-4.644,4.644,4.644,0,0,1,4.644,4.644,4.643,4.643,0,0,1-4.644,4.644A4.644,4.644,0,0,1-430.388,184.663Z" transform="translate(457.725 189.933)" fill="none" stroke="#f2f2f2" stroke-miterlimit="10" stroke-width="1.274"/>
    <path id="Tracé_1397" data-name="Tracé 1397" d="M-430.388,184.663a4.645,4.645,0,0,1,4.644-4.644,4.644,4.644,0,0,1,4.644,4.644,4.643,4.643,0,0,1-4.644,4.644A4.644,4.644,0,0,1-430.388,184.663Z" transform="translate(613.725 99.933)" fill="none" stroke="#f2f2f2" stroke-miterlimit="10" stroke-width="1.274"/>
    <path id="cloud" d="M44.276,13.653a10.354,10.354,0,0,0-2.053.205A8.466,8.466,0,0,0,30.366,7.839,11.3,11.3,0,0,0,9.122,15.552,9.42,9.42,0,0,0,9.4,34.387H44.277a10.367,10.367,0,1,0,0-20.735Zm0,0" transform="translate(76.001 203.487)" fill="#fff" opacity="0.37"/>
    <path id="cloud-2" data-name="cloud" d="M44.276,13.653a10.354,10.354,0,0,0-2.053.205A8.466,8.466,0,0,0,30.366,7.839,11.3,11.3,0,0,0,9.122,15.552,9.42,9.42,0,0,0,9.4,34.387H44.277a10.367,10.367,0,1,0,0-20.735Zm0,0" transform="translate(297.001 423.487)" fill="#fff" opacity="0.35"/>
    <path id="cloud-3" data-name="cloud" d="M19.391,6.2a4.535,4.535,0,0,0-.9.09A3.708,3.708,0,0,0,13.3,3.653a4.949,4.949,0,0,0-9.3,3.378,4.126,4.126,0,0,0,.124,8.249H19.391a4.54,4.54,0,0,0,0-9.081Zm0,0" transform="translate(270.001 415.595)" fill="#fff" opacity="0.35"/>
    <path id="cloud-4" data-name="cloud" d="M31.267,9.757a7.312,7.312,0,0,0-1.45.145,5.979,5.979,0,0,0-8.374-4.251,7.98,7.98,0,0,0-15,5.447,6.652,6.652,0,0,0,.2,13.3H31.267a7.321,7.321,0,0,0,0-14.643Zm0,0" transform="translate(294.001 137.487)" fill="#fff" opacity="0.33"/>
    <path id="cloud-5" data-name="cloud" d="M22.035,6.991a5.153,5.153,0,0,0-1.022.1,4.213,4.213,0,0,0-5.9-3A5.624,5.624,0,0,0,4.539,7.936,4.688,4.688,0,0,0,4.68,17.31H22.035a5.16,5.16,0,1,0,0-10.319Zm0,0" transform="translate(131.001 237.487)" fill="#fff" opacity="0.37"/>
  </g>
</svg>
