<svg id="Capa_1" enable-background="new 0 0 512.001 512.001" height="512" viewBox="0 0 512.001 512.001" width="512" xmlns="http://www.w3.org/2000/svg"><g><path d="m236.074 372.391c-7.485-6.526-12.081-16.105-12.081-26.551v-19.371c-13.686 9.392-30.237 5.672-48 5.672-17.763 0-34.314 3.719-48-5.672v19.37c0 10.445-4.596 20.024-12.081 26.551l60.081 50.054z" fill="#f4a86d"/><path d="m369.778 0c-78.547 0-142.222 57.308-142.222 128 0 52.374 34.951 97.401 85.007 117.22 1.165.461 1.771 1.721 1.425 2.926-.908 3.165-1.281 6.556-1.015 10.069 1.06 13.992 12.479 25.27 26.482 26.169 15.807 1.016 29.066-10.889 30.239-26.177.096-1.246 1.115-2.205 2.364-2.223 77.496-1.096 139.942-57.977 139.942-127.984 0-70.692-63.675-128-142.222-128z" fill="#eff3f5"/><path d="m417.246 7.303c32.641 23.455 53.554 59.573 53.554 100.087 0 70.695-63.678 128.005-142.228 128.005-16.633 0-32.598-2.57-47.434-7.292-.001-.001-.003-.001-.004-.001 9.549 6.859 20.102 12.634 31.428 17.118 1.165.461 1.771 1.721 1.425 2.926-.908 3.165-1.281 6.556-1.015 10.069 1.06 13.992 12.479 25.27 26.482 26.169 15.807 1.016 29.066-10.889 30.239-26.177.096-1.246 1.115-2.205 2.364-2.223 77.497-1.096 139.943-57.977 139.943-127.984 0-55.711-39.547-103.11-94.754-120.697z" fill="#daeaef"/><circle cx="298.667" cy="312.889" fill="#daeaef" r="14.222"/><path d="m101.815 197.333h-32.236c-11.921 0-21.585 9.664-21.585 21.585 0 23.425 18.99 42.415 42.415 42.415h.815z" fill="#ffb983"/><path d="m282.408 197.333h-36.169l14.525 64h.815c23.425 0 42.415-18.99 42.415-42.415-.001-11.921-9.665-21.585-21.586-21.585z" fill="#f4a86d"/><path d="m261.934 242.992 3.947-61.854c3.311-51.895-37.887-95.805-89.887-95.805-22.86 0-43.633 8.486-59.454 22.406-5.092 4.48-5.384 12.312-.588 17.107l1.427 1.427c-5.305-5.305-14.24-4.367-18.17 2.024-9.388 15.264-14.337 33.497-13.103 52.84l3.947 61.854z" fill="#fd7e42"/><path d="m230.51 184.889h-4.887c-31.778 0-62.254-12.624-84.724-35.094l-4.373-4.373c-1.408-1.408-3.814-.742-4.297 1.19l-8.977 35.906c-2.714 10.858-8.329 20.774-16.243 28.688-1.409 1.409-2.582 3.037-3.474 4.819l-13.484 26.968 1.202 18.836c2.852 44.705 39.943 79.505 84.739 79.505 44.796 0 81.886-34.799 84.739-79.505l1.202-18.836-27.991-55.982c-.649-1.301-1.978-2.122-3.432-2.122z" fill="#fcd0a3"/><path d="m233.943 187.011c-.65-1.3-1.979-2.122-3.433-2.122h-4.887c-8.455 0-16.818-.894-24.962-2.629l11.623 23.246c5.528 11.057 8.026 23.381 7.239 35.718-2.852 44.705-39.943 79.505-84.739 79.505-5.438 0-10.763-.513-15.926-1.494 15.123 13.759 35.206 22.099 57.135 22.099 44.796 0 81.886-34.799 84.739-79.505l1.202-18.837z" fill="#ffb983"/><path d="m262.782 383.03c-4.181-1.045-8.279-2.069-12.116-3.029-5.542-1.385-10.499-4.042-14.592-7.611l-59.483 39.655c-.362.241-.834.241-1.196 0l-59.483-39.655c-4.093 3.569-9.05 6.225-14.592 7.611l-12.115 3.029 86.787 67.858z" fill="#eff3f5"/><path d="m303.329 393.165c-8.911-2.227-25.287-6.321-40.547-10.136l-86.191 57.46c-.362.241-.834.241-1.196 0l-86.189-57.46-40.535 10.135c-28.604 7.152-48.671 32.853-48.671 62.338v55.12c0 .762.618 1.379 1.379 1.379h349.241c.762 0 1.38-.618 1.38-1.38v-55.119c.001-29.485-20.066-55.186-48.671-62.337z" fill="#1dd0b0"/><path d="m412.445 92.445v-35.556h-85.333v35.556c0 14.268 7.004 26.9 17.762 34.647.627.452.627 1.366 0 1.817-10.758 7.746-17.762 20.378-17.762 34.647v35.555h85.333v-35.555c0-14.269-7.004-26.901-17.762-34.647-.627-.452-.627-1.366 0-1.817 10.758-7.747 17.762-20.379 17.762-34.647z" fill="#c1e2ff"/><path d="m170.148 269.232h-2.154c-4.142 0-7.5-3.357-7.5-7.5s3.358-7.5 7.5-7.5h2.154c3.499 0 6.346-2.847 6.346-6.346v-18.154c0-4.143 3.358-7.5 7.5-7.5s7.5 3.357 7.5 7.5v18.154c0 11.771-9.576 21.346-21.346 21.346zm42.601 29.917c3.206-2.623 3.677-7.348 1.054-10.554-2.624-3.205-7.349-3.677-10.554-1.054-8.032 6.572-17.455 10.047-27.249 10.047s-19.217-3.475-27.249-10.047c-3.206-2.623-7.93-2.151-10.554 1.054-2.623 3.206-2.151 7.931 1.054 10.554 10.743 8.792 23.451 13.439 36.749 13.439s26.006-4.647 36.749-13.439z" fill="#ffb983"/><path d="m176 312.588c13.298 0 26.006-4.647 36.749-13.439 3.206-2.623 3.677-7.348 1.054-10.554-2.624-3.205-7.349-3.677-10.554-1.054-.923.755-1.864 1.469-2.822 2.142-7.844 9.547-17.722 17.336-28.95 22.724 1.499.12 3.007.181 4.523.181z" fill="#f4a86d"/><path d="m418.192 64.389h-96.827c-4.142 0-7.5-3.357-7.5-7.5s3.358-7.5 7.5-7.5h96.827c4.142 0 7.5 3.357 7.5 7.5s-3.358 7.5-7.5 7.5z" fill="#557981"/><path d="m418.192 206.611h-96.827c-4.142 0-7.5-3.357-7.5-7.5s3.358-7.5 7.5-7.5h96.827c4.142 0 7.5 3.357 7.5 7.5s-3.358 7.5-7.5 7.5z" fill="#557981"/><path d="m425.414 201.139c-2.256 1.889-4.581 3.712-6.97 5.467 3.328-.11 6.107-2.388 6.97-5.467z" fill="#3c5959"/><g><path d="m369.778 135.5c-4.142 0-7.5-3.357-7.5-7.5v-30.34c0-4.143 3.358-7.5 7.5-7.5s7.5 3.357 7.5 7.5v30.34c0 4.143-3.358 7.5-7.5 7.5z" fill="#fd7e42"/></g><g><path d="m369.778 178.167c-4.142 0-7.5-3.357-7.5-7.5v-14.222c0-4.143 3.358-7.5 7.5-7.5s7.5 3.357 7.5 7.5v14.222c0 4.142-3.358 7.5-7.5 7.5z" fill="#fd7e42"/></g><path d="m291.945 512.001v-45.258c0-4.143-3.358-7.5-7.5-7.5s-7.5 3.357-7.5 7.5v45.258z" fill="#04b49c"/><path d="m64.39 512.001v-45.258c0-4.143-3.358-7.5-7.5-7.5s-7.5 3.357-7.5 7.5v45.258z" fill="#04b49c"/><path d="m369.778 109.985c-7.855 0-14.222-6.368-14.222-14.222v-10.43h28.444v10.43c0 7.855-6.367 14.222-14.222 14.222z" fill="#fd7e42"/></g></svg>