<svg height="512" viewBox="0 0 512 512" width="512" xmlns="http://www.w3.org/2000/svg"><g id="Filledoutline"><path d="m464 448v-312a24 24 0 0 0 -24-24h-368a24 24 0 0 0 -24 24v312z" fill="#e3e4e2"/><path d="m80 144h352v248h-352z" fill="#2ba3c4"/><path d="m352 416h136v16a24 24 0 0 1 -24 24h-416a24 24 0 0 1 -24-24v-16h136l16 8h160z" fill="#b2b1b4"/><path d="m80 144h352v64h-352z" fill="#b2b1b4"/><path d="m334.2 340.117-19.214 11.951-11.95-19.215 65.378-280.481a16 16 0 0 1 19.214-11.951 16 16 0 0 1 11.951 19.215z" fill="#f8bc1e"/><path d="m358.916 78.959h32v32h-32z" fill="#f79726" transform="matrix(.227 -.974 .974 .227 197.331 438.533)"/><path d="m296.246 337.079 11.95 19.214a8 8 0 0 0 11.019 2.567l19.214-11.95a8 8 0 0 0 3.565-4.976l65.376-280.483a24 24 0 0 0 -46.747-10.9l-65.375 280.486a8 8 0 0 0 .998 6.042zm84.646-232.512-15.583-3.632 3.632-15.583 15.583 3.632zm-1.121-55.357a8 8 0 0 1 12.017 8.609l-3.632 15.581-15.583-3.63 3.632-15.582a7.949 7.949 0 0 1 3.566-4.978zm-18.094 67.307 15.583 3.632-50.1 214.925-9.606 5.975-5.976-9.607z"/><path d="m488 408h-16v-272a32.036 32.036 0 0 0 -32-32h-32v16h32a16.019 16.019 0 0 1 16 16v272h-104a7.994 7.994 0 0 0 -3.578.845l-14.311 7.155h-156.222l-14.311-7.155a7.994 7.994 0 0 0 -3.578-.845h-104v-272a16.019 16.019 0 0 1 16-16h256v-16h-256a32.036 32.036 0 0 0 -32 32v272h-16a8 8 0 0 0 -8 8v16a32.036 32.036 0 0 0 32 32h416a32.036 32.036 0 0 0 32-32v-16a8 8 0 0 0 -8-8zm-8 24a16.019 16.019 0 0 1 -16 16h-416a16.019 16.019 0 0 1 -16-16v-8h126.111l14.311 7.155a7.994 7.994 0 0 0 3.578.845h160a7.994 7.994 0 0 0 3.578-.845l14.311-7.155h126.111z"/><path d="m440 392v-248a8 8 0 0 0 -8-8h-32v16h24v48h-32v16h32v176z"/><path d="m104 168h16v16h-16z"/><path d="m136 168h16v16h-16z"/><path d="m168 168h16v16h-16z"/><path d="m304 200h-216v-48h232v-16h-240a8 8 0 0 0 -8 8v248h16v-176h216z"/><path d="m128 240h16v16h-16z"/><path d="m160 240h112v16h-112z"/><path d="m112 272h136v16h-136z"/><path d="m112 304h136v16h-136z"/><path d="m152.812 355.512 4.993 9.987a14 14 0 0 0 20.288 5.387l12.887-8.592 9.605 9.605a13.907 13.907 0 0 0 9.9 4.1h45.515v-15.999h-44.687l-10.177-10.179a14.04 14.04 0 0 0 -17.666-1.749l-12.37 8.244-5.972-11.944a14 14 0 0 0 -25.521 1.063l-11.038 27.594 14.856 5.942z"/><path d="m272 360h16v16h-16z"/><path d="m96 72h176v16h-176z"/><path d="m288 72h16v16h-16z"/></g></svg>