<svg id="Layer_1" height="512" viewBox="0 0 128 128" width="512" xmlns="http://www.w3.org/2000/svg"><g><g><g><g><g><g><path d="m90.123 82.816-14.96-14.938c-1.588-1.586-4.185-1.584-5.771.004l-1.524 1.527c-1.586 1.588-1.584 4.185.004 5.771l14.96 14.938c1.588 1.586 4.185 1.584 5.771-.004l1.524-1.527c1.586-1.588 1.584-4.185-.004-5.771z" fill="#96ceb4"/></g></g></g></g></g><g><g><g><path d="m77.34 70.051c-.98 1.395-2.065 2.74-3.311 3.988-1.245 1.247-2.587 2.332-3.979 3.314l5.202 5.195c1.357-1.028 2.664-2.153 3.901-3.392 1.238-1.24 2.362-2.55 3.389-3.91z" fill="#71a58a"/></g></g></g><g><g><g><g><g><path d="m112.581 102.255-18.184-18.159c-2.632-2.629-6.937-2.626-9.565.007l-.72.721c-2.629 2.632-2.625 6.937.007 9.565l18.185 18.159c2.632 2.629 6.937 2.625 9.565-.007l.72-.721c2.628-2.632 2.625-6.936-.008-9.565z" fill="#ff6f69"/></g></g></g></g></g><g><g><g><g><g><path d="m92.998 79.758c-1.637-1.635-4.315-1.633-5.95.004l-7.274 7.284c-1.635 1.637-1.633 4.315.004 5.95s4.315 1.633 5.95-.004l7.274-7.284c1.635-1.637 1.633-4.315-.004-5.95z" fill="#e05858"/></g></g></g></g></g><g><g><g><circle cx="50.668" cy="50.709" fill="#ffeead" r="27.872"/></g></g></g><g><g><g><g><g><g><path d="m54.061 71.468-1.457-4.223c-.191-.554-.796-.848-1.35-.657l-1.741.601c-.193-.239-.395-.467-.608-.685l.806-1.647c.258-.528.038-1.165-.49-1.421l-4.03-1.954c-.527-.255-1.161-.037-1.418.489l-.809 1.653c-.304-.033-.609-.051-.917-.054l-.598-1.732c-.191-.554-.796-.848-1.35-.657l-4.244 1.464c-.554.191-.849.796-.658 1.35l.598 1.732c-.24.193-.47.395-.689.608l-1.656-.803c-.527-.255-1.161-.037-1.418.489l-1.968 4.023c-.258.528-.039 1.165.49 1.421l1.65.8c-.033.303-.052.607-.057.915l-1.741.601c-.554.191-.849.796-.658 1.35l1.457 4.223c.191.554.796.848 1.35.657l1.741-.601c.193.239.396.467.609.685l-.806 1.647c-.258.528-.039 1.165.49 1.421l4.03 1.954c.527.255 1.161.037 1.418-.489l.809-1.653c.304.032.609.051.917.054l.598 1.732c.191.554.796.848 1.35.657l4.244-1.464c.554-.191.849-.796.658-1.35l-.598-1.732c.24-.193.47-.395.689-.608l1.656.803c.527.255 1.161.037 1.418-.489l1.968-4.023c.258-.528.038-1.165-.49-1.421l-1.65-.8c.033-.303.052-.607.056-.915l1.741-.601c.555-.191.849-.795.658-1.35zm-10.349 7.067c-2.902 1.001-6.063-.532-7.061-3.424s.546-6.048 3.448-7.049 6.063.532 7.061 3.424-.546 6.048-3.448 7.049z" fill="#c9b77d"/></g></g></g></g></g></g><g><g><g><g><g><g><path d="m71.652 40.788c-.353-1.681-.961-3.267-1.785-4.722l1.253-1.176 1.598-1.501c.463-.435.486-1.164.051-1.627l-.982-1.045-2.805-2.988c-.435-.464-1.164-.487-1.627-.051l-2.851 2.676c-1.4-.914-2.944-1.621-4.6-2.079l.123-3.906c.02-.635-.479-1.167-1.114-1.187l-5.529-.175c-.635-.02-1.167.479-1.187 1.114l-.123 3.906c-1.681.353-3.267.961-4.722 1.785l-2.676-2.851c-.435-.464-1.164-.487-1.627-.051l-2.988 2.805-1.046.981c-.464.435-.487 1.164-.051 1.627l1.501 1.599 1.176 1.252c-.914 1.4-1.621 2.944-2.079 4.6l-3.907-.123c-.635-.02-1.167.479-1.187 1.114l-.175 5.529c-.02.635.479 1.167 1.114 1.187l3.907.123c.162.771.371 1.525.637 2.254.314.859.702 1.681 1.148 2.468l-.052.049.024.051-1.757 1.615-1.047.962c-.472.433-.499 1.169-.06 1.636l3.778 4.024c.435.464 1.164.486 1.627.051l2.851-2.676c1.4.914 2.944 1.621 4.6 2.08l-.123 3.906c-.02.635.479 1.167 1.114 1.187l5.529.175c.635.02 1.167-.479 1.187-1.114l.123-3.906c1.681-.353 3.267-.961 4.722-1.785l2.676 2.851c.435.464 1.164.487 1.627.051l4.033-3.786c.464-.435.487-1.164.051-1.627l-.982-1.045-1.695-1.806c.079-.121.16-.24.236-.363l.614-1.098c.158-.306.312-.613.451-.93.311-.711.568-1.449.778-2.209l3.907.123c.635.02 1.167-.479 1.187-1.114l.175-5.529c.02-.635-.479-1.167-1.114-1.187zm-14.798 13.242c-6.824.899-12.427-5.069-11.099-11.823.804-4.09 4.224-7.3 8.356-7.845 6.824-.899 12.427 5.069 11.099 11.823-.804 4.09-4.224 7.301-8.356 7.845z" fill="#c9b77d"/></g></g></g></g></g></g><g><g><g><g><g><g><g><g><path d="m54.061 67.716-1.457-4.223c-.191-.554-.796-.848-1.35-.657l-1.741.601c-.193-.239-.395-.467-.608-.685l.806-1.647c.258-.528.038-1.165-.49-1.421l-4.03-1.954c-.527-.255-1.161-.037-1.418.489l-.809 1.653c-.304-.033-.609-.051-.917-.054l-.598-1.732c-.191-.554-.796-.848-1.35-.657l-4.244 1.464c-.554.191-.849.796-.658 1.35l.598 1.732c-.24.193-.47.395-.689.608l-1.656-.803c-.527-.255-1.161-.037-1.418.489l-1.968 4.023c-.258.528-.039 1.165.49 1.421l1.65.8c-.033.303-.052.608-.057.915l-1.741.601c-.554.191-.849.796-.658 1.35l1.457 4.223c.191.554.796.848 1.35.657l1.741-.601c.193.239.396.467.609.685l-.806 1.647c-.258.528-.039 1.165.49 1.421l4.03 1.954c.527.255 1.161.037 1.418-.489l.809-1.653c.304.032.609.051.917.054l.598 1.732c.191.554.796.848 1.35.657l4.244-1.464c.554-.191.849-.796.658-1.35l-.598-1.732c.24-.193.47-.395.689-.608l1.656.803c.527.255 1.161.037 1.418-.489l1.968-4.023c.258-.528.038-1.165-.49-1.421l-1.65-.8c.033-.303.052-.607.056-.915l1.741-.601c.555-.192.849-.796.658-1.35zm-10.349 7.066c-2.902 1.001-6.063-.532-7.061-3.424s.546-6.048 3.448-7.049 6.063.532 7.061 3.424-.546 6.048-3.448 7.049z" fill="#ff6f69"/></g></g></g></g></g></g></g><g><g><g><g><g><g><g><path d="m38.919 60.889c-4.65 1.604-7.094 6.792-5.447 11.566s6.769 7.352 11.419 5.748 7.094-6.792 5.447-11.566-6.768-7.352-11.419-5.748zm5.167 14.978c-3.395 1.171-7.136-.712-8.339-4.197s.582-7.275 3.978-8.446c3.395-1.171 7.136.712 8.339 4.197 1.202 3.486-.583 7.275-3.978 8.446z" fill="#e05858"/></g></g></g></g></g></g></g></g><g><g><g><g><g><g><g><path d="m71.652 37.035c-.353-1.681-.961-3.267-1.785-4.722l1.253-1.176 1.598-1.501c.463-.435.486-1.164.051-1.627l-.982-1.045-2.805-2.988c-.435-.464-1.164-.487-1.627-.051l-2.851 2.676c-1.4-.914-2.944-1.621-4.6-2.079l.123-3.906c.02-.635-.479-1.167-1.114-1.187l-5.529-.175c-.635-.02-1.167.479-1.187 1.114l-.123 3.906c-1.681.353-3.267.961-4.722 1.785l-2.676-2.851c-.435-.464-1.164-.487-1.627-.051l-2.988 2.805-1.046.981c-.464.435-.487 1.164-.051 1.627l1.501 1.599 1.176 1.252c-.914 1.4-1.621 2.944-2.079 4.6l-3.907-.123c-.635-.02-1.167.479-1.187 1.114l-.175 5.529c-.02.635.479 1.167 1.114 1.187l3.907.123c.162.771.371 1.525.637 2.254.314.859.702 1.681 1.148 2.468l-.052.049.024.051-1.757 1.615-1.047.962c-.472.433-.499 1.169-.06 1.636l3.778 4.024c.435.464 1.164.486 1.627.051l2.851-2.676c1.4.914 2.944 1.621 4.6 2.08l-.123 3.906c-.02.635.479 1.167 1.114 1.187l5.529.175c.635.02 1.167-.479 1.187-1.114l.123-3.906c1.681-.353 3.267-.961 4.722-1.785l2.676 2.851c.435.464 1.164.486 1.627.051l4.033-3.786c.464-.435.487-1.164.051-1.627l-.982-1.045-1.695-1.806c.079-.121.16-.24.236-.363l.614-1.098c.158-.306.312-.613.451-.93.311-.711.568-1.449.778-2.209l3.907.123c.635.02 1.167-.479 1.187-1.114l.175-5.529c.02-.635-.479-1.167-1.114-1.187zm-14.798 13.243c-6.824.899-12.427-5.069-11.099-11.823.804-4.09 4.224-7.3 8.356-7.845 6.824-.899 12.427 5.069 11.099 11.823-.804 4.089-4.224 7.3-8.356 7.845z" fill="#ff6f69"/></g></g></g></g></g></g><g><g><g><g><g><g><path d="m55.957 25.435c-8.289-.262-15.221 6.246-15.482 14.535-.262 8.289 6.246 15.221 14.535 15.483s15.221-6.246 15.482-14.535-6.246-15.221-14.535-15.483zm-.831 26.331c-6.253-.197-11.162-5.426-10.965-11.68.197-6.253 5.427-11.162 11.68-10.965s11.162 5.427 10.965 11.68c-.198 6.254-5.427 11.163-11.68 10.965z" fill="#e05858"/></g></g></g></g></g></g></g><g><g><g><g><g><path d="m76.972 24.367c-14.548-14.527-38.118-14.51-52.645.038-14.528 14.548-14.511 38.118.038 52.646 14.548 14.527 38.118 14.51 52.646-.038s14.51-38.119-.039-52.646zm-5.086 47.529c-11.701 11.718-30.686 11.731-42.404.03s-11.732-30.686-.031-42.404 30.686-11.732 42.404-.031c11.718 11.702 11.732 30.687.031 42.405z" fill="#96ceb4"/></g></g></g><g><g><g><path d="m71.855 29.492c-11.718-11.701-30.703-11.688-42.404.031-11.701 11.717-11.687 30.702.031 42.403s30.703 11.688 42.404-.03 11.687-30.703-.031-42.404zm-1.464 40.911c-10.877 10.893-28.525 10.905-39.417.028-10.893-10.877-10.905-28.525-.028-39.417s28.524-10.905 39.417-.028c10.892 10.877 10.905 28.525.028 39.417z" fill="#fff"/></g></g></g></g></g></g></svg>