<svg xmlns="http://www.w3.org/2000/svg" data-name="Layer 1" viewBox="0 0 64 64"><path fill="#edeeef" d="M53.42,10.15v43.7a2,2,0,0,1-2,2H20.14a2,2,0,0,1-2-2V23.09l11-14.94H51.42A2,2,0,0,1,53.42,10.15Z"/><path fill="#002345" d="M51.42,56.85H20.14a3,3,0,0,1-3-3V23.09a1,1,0,0,1,.2-.59l11-14.94a1,1,0,0,1,.8-.41H51.42a3,3,0,0,1,3,3v43.7A3,3,0,0,1,51.42,56.85ZM19.14,23.42V53.85a1,1,0,0,0,1,1H51.42a1,1,0,0,0,1-1V10.15a1,1,0,0,0-1-1H29.66Z"/><path fill="#cfd0d1" d="M29.14,8.17V21a2,2,0,0,1-2,2H18.19Z"/><path fill="#002345" d="M27.14,24H18.19a1,1,0,0,1-.8-1.59l11-14.85a1,1,0,0,1,1.8.59V21A3,3,0,0,1,27.14,24Zm-7-2h7a1,1,0,0,0,1-1V11.21Z"/><rect width="31.32" height="14.04" x="10.58" y="35.47" fill="#ffd973" rx="2"/><path fill="#002345" d="M39.9,50.51H12.58a3,3,0,0,1-3-3v-10a3,3,0,0,1,3-3H39.9a3,3,0,0,1,3,3v10A3,3,0,0,1,39.9,50.51Zm-27.32-14a1,1,0,0,0-1,1v10a1,1,0,0,0,1,1H39.9a1,1,0,0,0,1-1v-10a1,1,0,0,0-1-1Z"/><path fill="#edeeef" d="M23.16 39.53l-1.64 2.75 1.9 3.18h-2l-1-1.87L19.3 45.46H17.71l1.83-3.06-1.75-2.87h2l.88 1.59.91-1.59zM30 39.53v5.93H28.34V41.22l-1.05 4.24h-1.1L25.1 41.22v4.24H23.8V39.53h2.27l.82 3.15.78-3.15zM34.9 44v1.46h-4V39.53h1.73V44z"/></svg>